<?xml version="1.0"?>
<svg xmlns="http://www.w3.org/2000/svg" xmlns:xlink="http://www.w3.org/1999/xlink" version="1.1" id="Capa_1" x="0px" y="0px" viewBox="0 0 511.999 511.999" style="enable-background:new 0 0 511.999 511.999;" xml:space="preserve" width="512px" height="512px" class=""><g><path style="fill:#54B03B" d="M88.98,420.61c0,7.658,6.21,13.869,13.87,13.869h306.29c7.659,0,13.87-6.21,13.87-13.869V52.93H88.98  V420.61z" data-original="#E2E2E2" class="" data-old_color="#E2E2E2"/><path style="fill:#54B03B" d="M445.548,39.061c0,7.66-6.21,13.869-13.87,13.869H80.311c-7.659,0-13.87-6.208-13.87-13.869V21.854  c0-7.659,6.21-13.869,13.87-13.869h351.367c7.659,0,13.87,6.209,13.87,13.869V39.061z" data-original="#47545E" class="" data-old_color="#47545E"/><path style="fill:#3E842B" d="M431.678,30.433H80.311c-6.754,0-12.375-4.83-13.611-11.224c-0.166,0.857-0.259,1.74-0.259,2.645  v17.207c0,7.66,6.21,13.869,13.87,13.869h351.367c7.659,0,13.87-6.208,13.87-13.869c0-18.822,0.086-18.065-0.259-19.852  C444.053,25.603,438.432,30.433,431.678,30.433z" data-original="#333E48" class="" data-old_color="#333E48"/><path style="fill:#40882C" d="M108.981,420.61V52.93H88.98v367.68c0,7.658,6.21,13.869,13.87,13.869h20.001  C115.191,434.479,108.981,428.269,108.981,420.61z" data-original="#D1D3D3" class="active-path" data-old_color="#D1D3D3"/><path d="M431.683,0h-272.31c-4.143,0-7.5,3.358-7.5,7.5s3.357,7.5,7.5,7.5h272.31c3.512,0,6.369,2.857,6.369,6.368v17.207  c0,3.511-2.857,6.368-6.369,6.368c-13.227,0-338.168,0-351.367,0c-3.512,0-6.369-2.857-6.369-6.368V21.369  c0-3.511,2.857-6.368,6.369-6.368h51.055c4.143,0,7.5-3.358,7.5-7.5s-3.357-7.5-7.5-7.5H80.316C68.532,0,58.945,9.587,58.945,21.369  v17.207c0,10.804,8.215,21.369,22.538,21.369v360.18c0,11.783,9.587,21.369,21.37,21.369h145.645v23.572  c-9.609,3.16-16.566,12.212-16.566,22.864c0,13.271,10.797,24.067,24.067,24.067c13.271,0,24.066-10.797,24.066-24.067  c0-10.653-6.959-19.705-16.567-22.864v-23.572h145.645c11.784,0,21.37-9.587,21.37-21.369V128.182c0-4.142-3.357-7.5-7.5-7.5  c-4.143,0-7.5,3.358-7.5,7.5v291.945c0,3.511-2.857,6.368-6.369,6.368h-306.29c-3.512,0-6.369-2.857-6.369-6.368V59.946h319.029  v41.569c0,4.142,3.357,7.5,7.5,7.5c4.143,0,7.5-3.358,7.5-7.5V59.946h1.168c11.784,0,21.37-9.587,21.37-21.369V21.369  C453.053,9.587,443.466,0,431.683,0z M256,496.999c-4.999,0-9.067-4.067-9.067-9.067s4.067-9.067,9.067-9.067  s9.066,4.067,9.066,9.067S260.999,496.999,256,496.999z" data-original="#000000" class="" style="fill:#000000"/><polygon points="279.507,112.946 279.507,100.418 229.395,100.418 229.395,173.93 280.44,173.93 280.44,161.402 243.683,161.402   243.683,142.247 274.642,142.247 274.642,130.651 243.683,130.651 243.683,112.946 " data-original="#000000" class="" style="fill:#000000"/><polygon points="221.448,218.31 221.448,207.359 184.792,207.359 184.792,261.354 197.264,261.354 197.264,240.061 217.19,240.061   217.19,229.946 197.264,229.946 197.264,218.31 " data-original="#000000" class="" style="fill:#000000"/><path d="M335.182,232.455c3.662-9.536-1.124-19.47-9.279-23.499c-4.157-2.055-5.082-1.597-30.153-1.597v53.995h12.473v-17.416  C318.004,243.939,329.931,246.133,335.182,232.455z M308.222,218.31c10.783,0,10.478-0.124,11.864,0.418  c5.741,2.262,4.757,14.336-1.674,14.336h-10.19V218.31z" data-original="#000000" class="" style="fill:#000000"/><polygon points="174.247,345.987 174.247,319.89 184.108,319.89 184.108,311.675 154.917,311.675 154.917,319.89 164.824,319.89   164.824,345.987 " data-original="#000000" class="" style="fill:#000000"/><polygon points="325.642,345.987 352.85,345.987 352.85,337.771 337.482,337.771 352.561,318.682 352.561,311.675 326.368,311.675   326.368,319.89 341.687,319.89 325.642,338.98 " data-original="#000000" class="" style="fill:#000000"/><path d="M272.548,322.549c-7.173-18.266-33.611-12.337-33.611,6.234c0,4.544,1.811,8.864,4.783,12.058  C256.421,354.483,279.62,340.586,272.548,322.549z M264.212,328.783c0,12.411-15.706,12.104-15.706,0.097  C248.506,316.67,264.212,316.885,264.212,328.783z" data-original="#000000" class="" style="fill:#000000"/><path d="M354.629,277.477H157.371c-4.143,0-7.5,3.358-7.5,7.5c0,4.142,3.357,7.5,7.5,7.5h197.258c4.143,0,7.5-3.358,7.5-7.5  C362.129,280.835,358.772,277.477,354.629,277.477z" data-original="#000000" class="" style="fill:#000000"/><path d="M149.871,374.36c0,4.142,3.357,7.5,7.5,7.5h197.258c4.143,0,7.5-3.358,7.5-7.5s-3.357-7.5-7.5-7.5H157.371  C153.229,366.859,149.871,370.217,149.871,374.36z" data-original="#000000" class="" style="fill:#000000"/></g> </svg>
