<?xml version="1.0"?>
<svg xmlns="http://www.w3.org/2000/svg" height="512px" viewBox="0 0 64 64" width="512px" class=""><g><g id="Layer_31" data-name="Layer 31"><path d="m36.36 44a12.68 12.68 0 0 1 0-6h-8.72a12.68 12.68 0 0 1 0 6z" fill="#96cc7f" data-original="#96CC7F" class="active-path" data-old_color="#96cc7f" style="fill:#407D26"/><circle cx="49" cy="41" fill="#78b75b" r="13" data-original="#78B75B" class="" style="fill:#54B03B" data-old_color="#78b75b"/><circle cx="49" cy="41" fill="#c7e2fb" r="9" data-original="#C7E2FB" class=""/><path d="m55 34.27a9 9 0 1 0 -11 14.17 15.36 15.36 0 0 0 11-14.17z" fill="#ebf7fe" data-original="#EBF7FE" class=""/><circle cx="15" cy="41" fill="#78b75b" r="13" data-original="#78B75B" class="" style="fill:#54B03B" data-old_color="#78b75b"/><circle cx="15" cy="41" fill="#c7e2fb" r="9" data-original="#C7E2FB" class=""/><path d="m21 34.27a9 9 0 1 0 -11 14.17 15.36 15.36 0 0 0 11-14.17z" fill="#ebf7fe" data-original="#EBF7FE" class=""/><path d="m59.15 31.38-13.55-20.73a3.59 3.59 0 0 0 -6.47 1 3.54 3.54 0 0 0 .59 3.11l1 1.39 1.6-1.2-1-1.39a1.56 1.56 0 0 1 -.26-1.37 1.58 1.58 0 0 1 2.86-.43l10.78 16.46a14 14 0 0 0 -19.11 8.78h-7.18a14 14 0 0 0 -19.11-8.78l10.78-16.49a1.58 1.58 0 0 1 2.86.43 1.56 1.56 0 0 1 -.26 1.37l-1 1.39 1.6 1.2 1-1.39a3.58 3.58 0 1 0 -5.87-4.09l-13.56 20.74a14 14 0 1 0 23.56 13.62h7.18a14 14 0 1 0 23.56-13.62zm-44.15 21.62a12 12 0 1 1 12-12 12 12 0 0 1 -12 12zm13.84-10a12.58 12.58 0 0 0 0-4h6.32a12.58 12.58 0 0 0 0 4zm20.16 10a12 12 0 1 1 12-12 12 12 0 0 1 -12 12z" data-original="#000000" class=""/><path d="m49 31a10 10 0 1 0 10 10 10 10 0 0 0 -10-10zm-6.73 14.31a8 8 0 0 1 -1-2.19l9.83-9.83a8 8 0 0 1 2.19 1zm6.29-12.31-7.56 7.56a8 8 0 0 1 7.56-7.56zm.44 16a8 8 0 0 1 -5.44-2.15l11.29-11.29a8 8 0 0 1 1.3 1.87l-4.86 4.86 1.42 1.42 4.15-4.16a7.67 7.67 0 0 1 .14 1.45 8 8 0 0 1 -8 8z" data-original="#000000" class=""/><path d="m15 31a10 10 0 1 0 10 10 10 10 0 0 0 -10-10zm-6.73 14.31a8 8 0 0 1 -1-2.19l9.83-9.83a8 8 0 0 1 2.19 1zm6.29-12.31-7.56 7.56a8 8 0 0 1 7.56-7.56zm.44 16a8 8 0 0 1 -5.44-2.15l11.29-11.29a8 8 0 0 1 1.3 1.87l-4.86 4.86 1.42 1.42 4.15-4.16a7.67 7.67 0 0 1 .14 1.45 8 8 0 0 1 -8 8z" data-original="#000000" class=""/></g></g> </svg>
